<svg width="24" height="24" viewBox="0 0 24 24" fill="none" xmlns="http://www.w3.org/2000/svg">
<path d="M7.07812 16.9219C7.46645 16.9219 7.78125 16.6071 7.78125 16.2188C7.78125 15.8304 7.46645 15.5156 7.07812 15.5156C6.6898 15.5156 6.375 15.8304 6.375 16.2188C6.375 16.6071 6.6898 16.9219 7.07812 16.9219Z" fill="white"/>
<path d="M9.1875 19.0312C9.57583 19.0312 9.89062 18.7165 9.89062 18.3281C9.89062 17.9398 9.57583 17.625 9.1875 17.625C8.79917 17.625 8.48438 17.9398 8.48438 18.3281C8.48438 18.7165 8.79917 19.0312 9.1875 19.0312Z" fill="white"/>
<path d="M11.2969 21.1406C11.6852 21.1406 12 20.8258 12 20.4375C12 20.0492 11.6852 19.7344 11.2969 19.7344C10.9085 19.7344 10.5938 20.0492 10.5938 20.4375C10.5938 20.8258 10.9085 21.1406 11.2969 21.1406Z" fill="white"/>
<path d="M7.07812 7.07812C7.46645 7.07812 7.78125 6.76333 7.78125 6.375C7.78125 5.98667 7.46645 5.67188 7.07812 5.67188C6.6898 5.67188 6.375 5.98667 6.375 6.375C6.375 6.76333 6.6898 7.07812 7.07812 7.07812Z" fill="white"/>
<path d="M7.07812 11.2969C7.46645 11.2969 7.78125 10.9821 7.78125 10.5938C7.78125 10.2054 7.46645 9.89062 7.07812 9.89062C6.6898 9.89062 6.375 10.2054 6.375 10.5938C6.375 10.9821 6.6898 11.2969 7.07812 11.2969Z" fill="white"/>
<path d="M9.1875 9.1875C9.57583 9.1875 9.89062 8.8727 9.89062 8.48438C9.89062 8.09605 9.57583 7.78125 9.1875 7.78125C8.79917 7.78125 8.48438 8.09605 8.48438 8.48438C8.48438 8.8727 8.79917 9.1875 9.1875 9.1875Z" fill="white"/>
<path d="M11.2969 11.2969C11.6852 11.2969 12 10.9821 12 10.5938C12 10.2054 11.6852 9.89062 11.2969 9.89062C10.9085 9.89062 10.5938 10.2054 10.5938 10.5938C10.5938 10.9821 10.9085 11.2969 11.2969 11.2969Z" fill="white"/>
<path d="M11.2969 7.07812C11.6852 7.07812 12 6.76333 12 6.375C12 5.98667 11.6852 5.67188 11.2969 5.67188C10.9085 5.67188 10.5938 5.98667 10.5938 6.375C10.5938 6.76333 10.9085 7.07812 11.2969 7.07812Z" fill="white"/>
<path d="M19.7344 0H9.89062C9.50231 0 9.1875 0.314812 9.1875 0.703125V2.85938H4.26562C3.87731 2.85938 3.5625 3.17419 3.5625 3.5625V23.2969C3.5625 23.6852 3.87731 24 4.26562 24H14.1094C14.4977 24 14.8125 23.6852 14.8125 23.2969V21.1406H19.7344C20.1227 21.1406 20.4375 20.8258 20.4375 20.4375C20.4375 19.888 20.4375 1.26042 20.4375 0.703125C20.4375 0.314812 20.1227 0 19.7344 0ZM10.5938 1.40625H19.0312V9.89062H14.8125V3.5625C14.8125 3.17419 14.4977 2.85938 14.1094 2.85938H10.5938V1.40625ZM13.4062 4.26562V12.7031H4.96875V4.26562H13.4062ZM13.4062 22.5938H4.96875V14.1094H13.4062V22.5938ZM19.0312 19.7344H14.8125C14.8125 19.0181 14.8125 12.4327 14.8125 11.2969H19.0312V19.7344Z" fill="white"/>
</svg>
